<svg xmlns="http://www.w3.org/2000/svg" width="36" height="36" viewBox="0 0 256 256">
  <defs>
    <linearGradient id="logo-g1" x1="0%" y1="0%" x2="100%" y2="100%">
      <stop offset="0%" stop-color="#6366f1"/>
      <stop offset="50%" stop-color="#818cf8"/>
      <stop offset="100%" stop-color="#3b82f6"/>
    </linearGradient>
    <linearGradient id="logo-g2" x1="0%" y1="0%" x2="100%" y2="100%">
      <stop offset="0%" stop-color="#c084fc"/>
      <stop offset="100%" stop-color="#6366f1"/>
    </linearGradient>
  </defs>
  <!-- Rounded square background -->
  <rect width="256" height="256" rx="56" fill="url(#logo-g1)"/>
  <!-- Database cylinder shape -->
  <ellipse cx="128" cy="88" rx="64" ry="20" fill="white" opacity="0.95"/>
  <rect x="64" y="88" width="128" height="72" fill="white" opacity="0.85"/>
  <ellipse cx="128" cy="160" rx="64" ry="20" fill="white" opacity="0.85"/>
  <ellipse cx="128" cy="124" rx="64" ry="20" fill="none" stroke="url(#logo-g2)" stroke-width="2.5" opacity="0.6"/>
  <!-- Embedding dots -->
  <circle cx="100" cy="108" r="5" fill="url(#logo-g2)" opacity="0.9"/>
  <circle cx="128" cy="100" r="5" fill="url(#logo-g2)" opacity="0.9"/>
  <circle cx="156" cy="108" r="5" fill="url(#logo-g2)" opacity="0.9"/>
  <circle cx="112" cy="140" r="4" fill="url(#logo-g2)" opacity="0.7"/>
  <circle cx="144" cy="140" r="4" fill="url(#logo-g2)" opacity="0.7"/>
  <!-- Intelligence sparkle -->
  <path d="M200 48 L204 60 L216 64 L204 68 L200 80 L196 68 L184 64 L196 60 Z" fill="white" opacity="0.9"/>
  <path d="M172 32 L174 38 L180 40 L174 42 L172 48 L170 42 L164 40 L170 38 Z" fill="white" opacity="0.6"/>
  <!-- Letter A -->
  <text x="128" y="216" font-family="system-ui, -apple-system, sans-serif" font-size="48" font-weight="800" fill="white" text-anchor="middle" opacity="0.95">A</text>
</svg>
